<svg fill="none" height="121" viewBox="0 0 120 121" width="120" xmlns="http://www.w3.org/2000/svg">
  <path
    d="M57.0458 40.5978H18.8977C20.7819 54.3612 24.6847 59.9014 31.112 62.7635C33.2419 63.7119 35.5787 64.0533 37.9102 64.0533H63.5189C63.5189 47.3345 64.6735 42.4645 58.6205 40.7877C58.1099 40.6463 57.5756 40.5978 57.0458 40.5978Z"
    fill="white"/>
  <path
    d="M30.1966 71.5C32.632 67.8555 36.726 65.6673 41.1093 65.6673H63.5285V93.2938H18.9814L30.1966 71.5Z"
    fill="white"/>
  <path d="M65.1192 65.6673H98.271C98.271 80.925 85.9022 93.2938 70.6445 93.2938H65.1192V65.6673Z"
    fill="white"/>
  <path
    d="M65.457 44.7596C65.457 54.7625 65.458 62.9209 65.4576 64.2379C74.4894 64.2379 90.6422 64.3048 98.3419 64.3047C98.8243 58.4955 98.4617 52.9291 98.1964 50.4836C97.1656 46.4008 101.441 43.7514 103.398 42.9371C105.565 41.957 102.706 39.9063 101.133 38.1229C100.949 37.9143 100.771 37.705 100.603 37.5014C100.002 36.7736 99.5369 35.946 99.0456 35.1403C95.9867 30.1235 91.211 28.5572 89.0656 28.4145C76.261 26.8745 65.4565 31.9665 65.457 44.7596Z"
    fill="white"/>
  <path
    d="M86.6105 56.9387C85.3257 52.7971 82.4416 51.7447 79.8719 51.731C77.3022 51.7173 74.9649 52.8382 73.1879 54.6151L64.5631 63.2126C64.4947 63.2809 64.3717 63.2809 64.3034 63.2126L55.6785 54.6151C53.8879 52.8382 51.4959 51.7173 48.9809 51.731C46.4658 51.7447 43.5408 52.7971 42.2559 56.9387C42.2559 56.9387 40.151 65.4132 48.2154 66.5614H60.9956C61.1596 66.5614 61.2416 66.7391 61.1322 66.8621C59.9567 68.229 55.0087 73.7921 52.316 73.6964C52.2203 73.6964 52.1383 73.7647 52.1383 73.8604C52.1383 74.4072 52.1383 75.9927 52.1383 75.9927C52.1383 76.2388 52.2203 76.3071 52.316 76.3208C52.6167 76.3208 53.2045 76.2661 53.9836 76.0337C55.4871 75.5963 56.8266 74.7215 57.9338 73.6144L64.2897 67.2312C64.358 67.1628 64.481 67.1628 64.5494 67.2312L71.247 73.9561C71.9714 74.6805 72.7916 75.323 73.721 75.7604C75.1699 76.4438 76.1677 76.4028 76.5367 76.3481C76.6324 76.3481 76.7008 76.2524 76.7008 76.1704V73.8741C76.7008 73.7647 76.6188 73.6964 76.5094 73.6964C73.8167 73.7784 68.8687 68.229 67.7068 66.8621C67.6112 66.7391 67.6932 66.5614 67.8435 66.5614H80.6237C88.7018 65.4132 86.5968 56.9797 86.5832 56.9387H86.6105ZM50.047 64.0601C48.3384 64.0601 46.6435 63.3766 45.5774 62.0371C43.9098 59.9321 44.7983 57.8272 44.7983 57.8272C45.3997 55.4625 46.9306 54.5741 48.4341 54.3144C50.252 53.9863 52.111 54.6971 53.4095 56.0093L61.0912 63.7593C61.2006 63.8824 61.1186 64.0737 60.9545 64.0737H50.047V64.0601ZM78.8194 64.0601H67.9119C67.7478 64.0601 67.6658 63.8687 67.7752 63.7457L75.867 55.5719C76.6461 54.7791 77.6986 54.3007 78.8057 54.2187C80.6373 54.0957 83.2344 54.5604 84.0681 57.8135C84.0681 57.8135 84.9566 59.9185 83.289 62.0234C82.2229 63.363 80.528 64.0464 78.8194 64.0464V64.0601Z"
    fill="#300A80"/>
  <rect fill="#5B00CF" height="120" rx="18" width="120" y="0.227051"/>
</svg>
